# xmcd
#
# Track frame offsets: 
#        150
#        14192
#        26615
#        43345
#        63301
#        75293
#        88879
#        101262
#        111811
#        121474
#        132382
#        145175
#        158102
#        170194
#        183479
#        196950
#
# Disc length: 2790 seconds
#
# Revision: 2
# Processed by: cddbd v1.5.2PL0 Copyright (c) Steve Scherf et al.
# Submitted via: ExactAudioCopyFreeDBPlugin 1.0
#
DISCID=e10ae410
DTITLE=Various Artist - Golden Age Of Country [CD1]
DYEAR=2011
DGENRE=Country
TTITLE0=Glen Campbel - Wichita Lineman
TTITLE1=Merle Haggard and The Strangers - Okie From Muskogie
TTITLE2=Johnny Cash - A Boy Named Sue
TTITLE3=Marty Robbins - El Paso
TTITLE4=Don Gibson - I Can't Stop Loving You
TTITLE5=Jimmy Deam - Big Bad John
TTITLE6=Hank Williams - Lovesick Blues
TTITLE7=Ferlin Husky - Wings Of Dove
TTITLE8=George Jones - The Race Is On
TTITLE9=Porter Wagoner - Green Green Grass' Of Home
TTITLE10=Hank Snow - I'm Movin' On
TTITLE11=Jim Reeves - Four Walls
TTITLE12=Del Reeves - Girl On The Billboard
TTITLE13=Lefty Frizzell - If You've Got The Money, I've Got The Time
TTITLE14=Bobby Helms - My Special Angel
TTITLE15=Hank Thompson - Wild Side Of Life
EXTD=
EXTT0=
EXTT1=
EXTT2=
EXTT3=
EXTT4=
EXTT5=
EXTT6=
EXTT7=
EXTT8=
EXTT9=
EXTT10=
EXTT11=
EXTT12=
EXTT13=
EXTT14=
EXTT15=
PLAYORDER=
